<svg xmlns="http://www.w3.org/2000/svg" version="1.1" xmlns:xlink="http://www.w3.org/1999/xlink" xmlns:svgjs="http://svgjs.dev/svgjs" width="1500" height="935" viewBox="0 0 1500 935"><g transform="matrix(1,0,0,1,-0.9090909090909918,0.3785425101214628)"><svg viewBox="0 0 396 247" data-background-color="#ffffff" preserveAspectRatio="xMidYMid meet" height="935" width="1500" xmlns="http://www.w3.org/2000/svg" xmlns:xlink="http://www.w3.org/1999/xlink"><g id="tight-bounds" transform="matrix(1,0,0,1,0.2400000000000091,-0.09999999999999432)"><svg viewBox="0 0 395.52 247.2" height="247.2" width="395.52"><g><svg></svg></g><g><svg viewBox="0 0 395.52 247.2" height="247.2" width="395.52"><g transform="matrix(1,0,0,1,75.54432,104.20068571428571)"><svg viewBox="0 0 244.43135999999998 38.798628571428566" height="38.798628571428566" width="244.43135999999998"><g><svg viewBox="0 0 244.43135999999998 38.798628571428566" height="38.798628571428566" width="244.43135999999998"><g><svg viewBox="0 0 244.43135999999998 38.798628571428566" height="38.798628571428566" width="244.43135999999998"><g id="textblocktransform"><svg viewBox="0 0 244.43135999999998 38.798628571428566" height="38.798628571428566" width="244.43135999999998" id="textblock"><g><svg viewBox="0 0 244.43135999999998 38.798628571428566" height="38.798628571428566" width="244.43135999999998"><g transform="matrix(1,0,0,1,0,0)"><svg width="244.43135999999998" viewBox="1.7999999999999998 -28 176.38 28" height="38.798628571428566" data-palette-color="#000000"><path d="M18.2-6Q18.2-4.85 18-4L18-4Q18.2-3.2 18.2-2L18.2-2Q18.2-0.85 18 0L18 0 14 0Q13.8-0.85 13.8-2L13.8-2Q13.8-3.2 14-4L14-4Q13.8-4.85 13.8-6L13.8-6Q13.8-7.2 14-8L14-8 6-8Q6.2-7.2 6.2-6L6.2-6Q6.2-4.85 6-4L6-4Q6.2-3.2 6.2-2L6.2-2Q6.2-0.85 6 0L6 0 2 0Q1.8-0.85 1.8-2L1.8-2Q1.8-3.2 2-4L2-4Q1.8-4.85 1.8-6L1.8-6Q1.8-7.2 2-8L2-8 3.5-8Q3.3-8.85 3.3-10L3.3-10Q3.3-11.2 3.5-12L3.5-12Q3.3-12.85 3.3-14L3.3-14Q3.3-15.2 3.5-16L3.5-16 4.5-16Q4.3-16.85 4.3-18L4.3-18Q4.3-19.2 4.5-20L4.5-20 6-20Q5.8-20.85 5.8-22L5.8-22Q5.8-23.2 6-24L6-24 7-24Q6.8-24.85 6.8-26L6.8-26Q6.8-27.2 7-28L7-28 13-28Q13.2-27.2 13.2-26L13.2-26Q13.2-24.85 13-24L13-24 14-24Q14.2-23.2 14.2-22L14.2-22Q14.2-20.85 14-20L14-20 15.5-20Q15.7-19.2 15.7-18L15.7-18Q15.7-16.85 15.5-16L15.5-16 16.5-16Q16.7-15.2 16.7-14L16.7-14Q16.7-12.85 16.5-12L16.5-12Q16.7-11.2 16.7-10L16.7-10Q16.7-8.85 16.5-8L16.5-8 18-8Q18.2-7.2 18.2-6L18.2-6ZM12.5-12Q12.3-12.85 12.3-14L12.3-14Q12.3-15.2 12.5-16L12.5-16 11.5-16Q11.3-16.85 11.3-18L11.3-18Q11.3-19.2 11.5-20L11.5-20 8.5-20Q8.7-19.2 8.7-18L8.7-18Q8.7-16.85 8.5-16L8.5-16 7.5-16Q7.7-15.2 7.7-14L7.7-14Q7.7-12.85 7.5-12L7.5-12 12.5-12ZM38-24Q38.2-23.2 38.2-22L38.2-22Q38.2-20.85 38-20L38-20Q38.2-19.2 38.2-18L38.2-18Q38.2-16.85 38-16L38-16Q38.2-15.2 38.2-14L38.2-14Q38.2-12.85 38-12L38-12Q38.2-11.2 38.2-10L38.2-10Q38.2-8.85 38-8L38-8Q38.2-7.2 38.2-6L38.2-6Q38.2-4.85 38-4L38-4 36-4Q36.2-3.2 36.2-2L36.2-2Q36.2-0.85 36 0L36 0 24 0Q23.8-0.85 23.8-2L23.8-2Q23.8-3.2 24-4L24-4 22-4Q21.8-4.85 21.8-6L21.8-6Q21.8-7.2 22-8L22-8Q21.8-8.85 21.8-10L21.8-10Q21.8-11.2 22-12L22-12Q21.8-12.85 21.8-14L21.8-14Q21.8-15.2 22-16L22-16Q21.8-16.85 21.8-18L21.8-18Q21.8-19.2 22-20L22-20Q21.8-20.85 21.8-22L21.8-22Q21.8-23.2 22-24L22-24Q21.8-24.85 21.8-26L21.8-26Q21.8-27.2 22-28L22-28 26-28Q26.2-27.2 26.2-26L26.2-26Q26.2-24.85 26-24L26-24Q26.2-23.2 26.2-22L26.2-22Q26.2-20.85 26-20L26-20Q26.2-19.2 26.2-18L26.2-18Q26.2-16.85 26-16L26-16Q26.2-15.2 26.2-14L26.2-14Q26.2-12.85 26-12L26-12Q26.2-11.2 26.2-10L26.2-10Q26.2-8.85 26-8L26-8Q26.2-7.2 26.2-6L26.2-6Q26.2-4.85 26-4L26-4 34-4Q33.8-4.85 33.8-6L33.8-6Q33.8-7.2 34-8L34-8Q33.8-8.85 33.8-10L33.8-10Q33.8-11.2 34-12L34-12Q33.8-12.85 33.8-14L33.8-14Q33.8-15.2 34-16L34-16Q33.8-16.85 33.8-18L33.8-18Q33.8-19.2 34-20L34-20Q33.8-20.85 33.8-22L33.8-22Q33.8-23.2 34-24L34-24Q33.8-24.85 33.8-26L33.8-26Q33.8-27.2 34-28L34-28 38-28Q38.2-27.2 38.2-26L38.2-26Q38.2-24.85 38-24L38-24ZM58-16Q58.2-15.2 58.2-14L58.2-14Q58.2-12.85 58-12L58-12Q58.2-11.2 58.2-10L58.2-10Q58.2-8.85 58-8L58-8 56-8Q56.2-7.2 56.2-6L56.2-6Q56.2-4.85 56-4L56-4 54-4Q54.2-3.2 54.2-2L54.2-2Q54.2-0.85 54 0L54 0 42 0Q41.8-0.85 41.8-2L41.8-2Q41.8-3.2 42-4L42-4Q41.8-4.85 41.8-6L41.8-6Q41.8-7.2 42-8L42-8Q41.8-8.85 41.8-10L41.8-10Q41.8-11.2 42-12L42-12Q41.8-12.85 41.8-14L41.8-14Q41.8-15.2 42-16L42-16Q41.8-16.85 41.8-18L41.8-18Q41.8-19.2 42-20L42-20Q41.8-20.85 41.8-22L41.8-22Q41.8-23.2 42-24L42-24Q41.8-24.85 41.8-26L41.8-26Q41.8-27.2 42-28L42-28 54-28Q54.2-27.2 54.2-26L54.2-26Q54.2-24.85 54-24L54-24 56-24Q56.2-23.2 56.2-22L56.2-22Q56.2-20.85 56-20L56-20 58-20Q58.2-19.2 58.2-18L58.2-18Q58.2-16.85 58-16L58-16ZM54-8Q53.8-8.85 53.8-10L53.8-10Q53.8-11.2 54-12L54-12Q53.8-12.85 53.8-14L53.8-14Q53.8-15.2 54-16L54-16Q53.8-16.85 53.8-18L53.8-18Q53.8-19.2 54-20L54-20 52-20Q51.8-20.85 51.8-22L51.8-22Q51.8-23.2 52-24L52-24 46-24Q46.2-23.2 46.2-22L46.2-22Q46.2-20.85 46-20L46-20Q46.2-19.2 46.2-18L46.2-18Q46.2-16.85 46-16L46-16Q46.2-15.2 46.2-14L46.2-14Q46.2-12.85 46-12L46-12Q46.2-11.2 46.2-10L46.2-10Q46.2-8.85 46-8L46-8Q46.2-7.2 46.2-6L46.2-6Q46.2-4.85 46-4L46-4 52-4Q51.8-4.85 51.8-6L51.8-6Q51.8-7.2 52-8L52-8 54-8ZM71.99-4L74.99-4Q75.19-3.2 75.19-2L75.19-2Q75.19-0.85 74.99 0L74.99 0 64.99 0Q64.79-0.85 64.79-2L64.79-2Q64.79-3.2 64.99-4L64.99-4 67.99-4Q67.79-4.85 67.79-6L67.79-6Q67.79-7.2 67.99-8L67.99-8Q67.79-8.85 67.79-10L67.79-10Q67.79-11.2 67.99-12L67.99-12Q67.79-12.85 67.79-14L67.79-14Q67.79-15.2 67.99-16L67.99-16Q67.79-16.85 67.79-18L67.79-18Q67.79-19.2 67.99-20L67.99-20Q67.79-20.85 67.79-22L67.79-22Q67.79-23.2 67.99-24L67.99-24 64.99-24Q64.79-24.85 64.79-26L64.79-26Q64.79-27.2 64.99-28L64.99-28 74.99-28Q75.19-27.2 75.19-26L75.19-26Q75.19-24.85 74.99-24L74.99-24 71.99-24Q72.19-23.2 72.19-22L72.19-22Q72.19-20.85 71.99-20L71.99-20Q72.19-19.2 72.19-18L72.19-18Q72.19-16.85 71.99-16L71.99-16Q72.19-15.2 72.19-14L72.19-14Q72.19-12.85 71.99-12L71.99-12Q72.19-11.2 72.19-10L72.19-10Q72.19-8.85 71.99-8L71.99-8Q72.19-7.2 72.19-6L72.19-6Q72.19-4.85 71.99-4L71.99-4ZM97.99-16Q98.19-15.2 98.19-14L98.19-14Q98.19-12.85 97.99-12L97.99-12Q98.19-11.2 98.19-10L98.19-10Q98.19-8.85 97.99-8L97.99-8 96.49-8Q96.69-7.2 96.69-6L96.69-6Q96.69-4.85 96.49-4L96.49-4 93.99-4Q94.19-3.2 94.19-2L94.19-2Q94.19-0.85 93.99 0L93.99 0 85.99 0Q85.79-0.85 85.79-2L85.79-2Q85.79-3.2 85.99-4L85.99-4 83.49-4Q83.29-4.85 83.29-6L83.29-6Q83.29-7.2 83.49-8L83.49-8 81.99-8Q81.79-8.85 81.79-10L81.79-10Q81.79-11.2 81.99-12L81.99-12Q81.79-12.85 81.79-14L81.79-14Q81.79-15.2 81.99-16L81.99-16Q81.79-16.85 81.79-18L81.79-18Q81.79-19.2 81.99-20L81.99-20 83.49-20Q83.29-20.85 83.29-22L83.29-22Q83.29-23.2 83.49-24L83.49-24 85.99-24Q85.79-24.85 85.79-26L85.79-26Q85.79-27.2 85.99-28L85.99-28 93.99-28Q94.19-27.2 94.19-26L94.19-26Q94.19-24.85 93.99-24L93.99-24 96.49-24Q96.69-23.2 96.69-22L96.69-22Q96.69-20.85 96.49-20L96.49-20 97.99-20Q98.19-19.2 98.19-18L98.19-18Q98.19-16.85 97.99-16L97.99-16ZM93.99-8Q93.79-8.85 93.79-10L93.79-10Q93.79-11.2 93.99-12L93.99-12Q93.79-12.85 93.79-14L93.79-14Q93.79-15.2 93.99-16L93.99-16Q93.79-16.85 93.79-18L93.79-18Q93.79-19.2 93.99-20L93.99-20 92.49-20Q92.29-20.85 92.29-22L92.29-22Q92.29-23.2 92.49-24L92.49-24 87.49-24Q87.69-23.2 87.69-22L87.69-22Q87.69-20.85 87.49-20L87.49-20 85.99-20Q86.19-19.2 86.19-18L86.19-18Q86.19-16.85 85.99-16L85.99-16Q86.19-15.2 86.19-14L86.19-14Q86.19-12.85 85.99-12L85.99-12Q86.19-11.2 86.19-10L86.19-10Q86.19-8.85 85.99-8L85.99-8 87.49-8Q87.69-7.2 87.69-6L87.69-6Q87.69-4.85 87.49-4L87.49-4 92.49-4Q92.29-4.85 92.29-6L92.29-6Q92.29-7.2 92.49-8L92.49-8 93.99-8ZM118.19-22Q118.19-20.85 117.99-20L117.99-20Q118.19-19.2 118.19-18L118.19-18Q118.19-16.85 117.99-16L117.99-16 115.99-16Q116.19-15.2 116.19-14L116.19-14Q116.19-12.85 115.99-12L115.99-12 105.99-12Q106.19-11.2 106.19-10L106.19-10Q106.19-8.85 105.99-8L105.99-8Q106.19-7.2 106.19-6L106.19-6Q106.19-4.85 105.99-4L105.99-4Q106.19-3.2 106.19-2L106.19-2Q106.19-0.85 105.99 0L105.99 0 101.99 0Q101.79-0.85 101.79-2L101.79-2Q101.79-3.2 101.99-4L101.99-4Q101.79-4.85 101.79-6L101.79-6Q101.79-7.2 101.99-8L101.99-8Q101.79-8.85 101.79-10L101.79-10Q101.79-11.2 101.99-12L101.99-12Q101.79-12.85 101.79-14L101.79-14Q101.79-15.2 101.99-16L101.99-16Q101.79-16.85 101.79-18L101.79-18Q101.79-19.2 101.99-20L101.99-20Q101.79-20.85 101.79-22L101.79-22Q101.79-23.2 101.99-24L101.99-24Q101.79-24.85 101.79-26L101.79-26Q101.79-27.2 101.99-28L101.99-28 115.99-28Q116.19-27.2 116.19-26L116.19-26Q116.19-24.85 115.99-24L115.99-24 117.99-24Q118.19-23.2 118.19-22L118.19-22ZM113.99-16Q113.79-16.85 113.79-18L113.79-18Q113.79-19.2 113.99-20L113.99-20Q113.79-20.85 113.79-22L113.79-22Q113.79-23.2 113.99-24L113.99-24 105.99-24Q106.19-23.2 106.19-22L106.19-22Q106.19-20.85 105.99-20L105.99-20Q106.19-19.2 106.19-18L106.19-18Q106.19-16.85 105.99-16L105.99-16 113.99-16ZM131.99-4L134.99-4Q135.19-3.2 135.19-2L135.19-2Q135.19-0.85 134.99 0L134.99 0 124.99 0Q124.79-0.85 124.79-2L124.79-2Q124.79-3.2 124.99-4L124.99-4 127.99-4Q127.79-4.85 127.79-6L127.79-6Q127.79-7.2 127.99-8L127.99-8Q127.79-8.85 127.79-10L127.79-10Q127.79-11.2 127.99-12L127.99-12Q127.79-12.85 127.79-14L127.79-14Q127.79-15.2 127.99-16L127.99-16Q127.79-16.85 127.79-18L127.79-18Q127.79-19.2 127.99-20L127.99-20Q127.79-20.85 127.79-22L127.79-22Q127.79-23.2 127.99-24L127.99-24 124.99-24Q124.79-24.85 124.79-26L124.79-26Q124.79-27.2 124.99-28L124.99-28 134.99-28Q135.19-27.2 135.19-26L135.19-26Q135.19-24.85 134.99-24L134.99-24 131.99-24Q132.19-23.2 132.19-22L132.19-22Q132.19-20.85 131.99-20L131.99-20Q132.19-19.2 132.19-18L132.19-18Q132.19-16.85 131.99-16L131.99-16Q132.19-15.2 132.19-14L132.19-14Q132.19-12.85 131.99-12L131.99-12Q132.19-11.2 132.19-10L132.19-10Q132.19-8.85 131.99-8L131.99-8Q132.19-7.2 132.19-6L132.19-6Q132.19-4.85 131.99-4L131.99-4ZM153.98-8L157.98-8Q158.18-7.2 158.18-6L158.18-6Q158.18-4.85 157.98-4L157.98-4 155.98-4Q156.18-3.2 156.18-2L156.18-2Q156.18-0.85 155.98 0L155.98 0 145.98 0Q145.78-0.85 145.78-2L145.78-2Q145.78-3.2 145.98-4L145.98-4 143.98-4Q143.78-4.85 143.78-6L143.78-6Q143.78-7.2 143.98-8L143.98-8 141.98-8Q141.78-8.85 141.78-10L141.78-10Q141.78-11.2 141.98-12L141.98-12Q141.78-12.85 141.78-14L141.78-14Q141.78-15.2 141.98-16L141.98-16Q141.78-16.85 141.78-18L141.78-18Q141.78-19.2 141.98-20L141.98-20 143.98-20Q143.78-20.85 143.78-22L143.78-22Q143.78-23.2 143.98-24L143.98-24 145.98-24Q145.78-24.85 145.78-26L145.78-26Q145.78-27.2 145.98-28L145.98-28 155.98-28Q156.18-27.2 156.18-26L156.18-26Q156.18-24.85 155.98-24L155.98-24 157.98-24Q158.18-23.2 158.18-22L158.18-22Q158.18-20.85 157.98-20L157.98-20 153.98-20Q153.78-20.85 153.78-22L153.78-22Q153.78-23.2 153.98-24L153.98-24 147.98-24Q148.18-23.2 148.18-22L148.18-22Q148.18-20.85 147.98-20L147.98-20 145.98-20Q146.18-19.2 146.18-18L146.18-18Q146.18-16.85 145.98-16L145.98-16Q146.18-15.2 146.18-14L146.18-14Q146.18-12.85 145.98-12L145.98-12Q146.18-11.2 146.18-10L146.18-10Q146.18-8.85 145.98-8L145.98-8 147.98-8Q148.18-7.2 148.18-6L148.18-6Q148.18-4.85 147.98-4L147.98-4 153.98-4Q153.78-4.85 153.78-6L153.78-6Q153.78-7.2 153.98-8L153.98-8ZM176.48-4L177.98-4Q178.18-3.2 178.18-2L178.18-2Q178.18-0.85 177.98 0L177.98 0 173.98 0Q173.78-0.85 173.78-2L173.78-2Q173.78-3.2 173.98-4L173.98-4 172.48-4Q172.28-4.85 172.28-6L172.28-6Q172.28-7.2 172.48-8L172.48-8 171.48-8Q171.28-8.85 171.28-10L171.28-10Q171.28-11.2 171.48-12L171.48-12 168.48-12Q168.68-11.2 168.68-10L168.68-10Q168.68-8.85 168.48-8L168.48-8 167.48-8Q167.68-7.2 167.68-6L167.68-6Q167.68-4.85 167.48-4L167.48-4 165.98-4Q166.18-3.2 166.18-2L166.18-2Q166.18-0.85 165.98 0L165.98 0 161.98 0Q161.78-0.85 161.78-2L161.78-2Q161.78-3.2 161.98-4L161.98-4 163.48-4Q163.28-4.85 163.28-6L163.28-6Q163.28-7.2 163.48-8L163.48-8 165.48-8Q165.28-8.85 165.28-10L165.28-10Q165.28-11.2 165.48-12L165.48-12 166.98-12Q166.78-12.85 166.78-14L166.78-14Q166.78-15.2 166.98-16L166.98-16 165.48-16Q165.28-16.85 165.28-18L165.28-18Q165.28-19.2 165.48-20L165.48-20 163.48-20Q163.28-20.85 163.28-22L163.28-22Q163.28-23.2 163.48-24L163.48-24 161.98-24Q161.78-24.85 161.78-26L161.78-26Q161.78-27.2 161.98-28L161.98-28 165.98-28Q166.18-27.2 166.18-26L166.18-26Q166.18-24.85 165.98-24L165.98-24 167.48-24Q167.68-23.2 167.68-22L167.68-22Q167.68-20.85 167.48-20L167.48-20 168.48-20Q168.68-19.2 168.68-18L168.68-18Q168.68-16.85 168.48-16L168.48-16 171.48-16Q171.28-16.85 171.28-18L171.28-18Q171.28-19.2 171.48-20L171.48-20 172.48-20Q172.28-20.85 172.28-22L172.28-22Q172.28-23.2 172.48-24L172.48-24 173.98-24Q173.78-24.85 173.78-26L173.78-26Q173.78-27.2 173.98-28L173.98-28 177.98-28Q178.18-27.2 178.18-26L178.18-26Q178.18-24.85 177.98-24L177.98-24 176.48-24Q176.68-23.2 176.68-22L176.68-22Q176.68-20.85 176.48-20L176.48-20 174.48-20Q174.68-19.2 174.68-18L174.68-18Q174.68-16.85 174.48-16L174.48-16 172.98-16Q173.18-15.2 173.18-14L173.18-14Q173.18-12.85 172.98-12L172.98-12 174.48-12Q174.68-11.2 174.68-10L174.68-10Q174.68-8.85 174.48-8L174.48-8 176.48-8Q176.68-7.2 176.68-6L176.68-6Q176.68-4.85 176.48-4L176.48-4Z" opacity="1" transform="matrix(1,0,0,1,0,0)" fill="#000000" class="wordmark-text-0" data-fill-palette-color="primary" id="text-0"></path></svg></g></svg></g></svg></g></svg></g></svg></g></svg></g><path d="M182.641 98.201L182.641 35.654 6.749 35.654 6.749 211.546 182.641 211.546 182.641 148.999 179.142 148.999 179.142 208.047 10.248 208.047 10.248 39.153 179.142 39.153 179.142 98.201Z" fill="#000000" stroke="transparent" data-fill-palette-color="tertiary"></path></svg></g><defs></defs></svg><rect width="395.52" height="247.2" fill="none" stroke="none" visibility="hidden"></rect></g></svg></g></svg>